<?xml version="1.0" encoding="UTF-8" standalone="no"?>
<!-- Uploaded to: SVG Repo, www.svgrepo.com, Transformed by: SVG Repo Mixer Tools -->

<svg
   width="737.10028"
   height="403.50699"
   viewBox="0 0 14.742006 8.0701398"
   version="1.1"
   class="si-glyph si-glyph-cocktail"
   fill="#000000"
   id="svg3"
   xmlns="http://www.w3.org/2000/svg"
   xmlns:svg="http://www.w3.org/2000/svg">
  <defs
     id="defs3">
    <rect
       x="116.59773"
       y="400.68933"
       width="1263.9744"
       height="228.46584"
       id="rect4" />
    <rect
       x="116.59773"
       y="400.68933"
       width="1263.9744"
       height="228.46584"
       id="rect5" />
    <rect
       x="116.59773"
       y="400.68933"
       width="1263.9744"
       height="228.46584"
       id="rect5-7" />
  </defs>
  <g
     id="SVGRepo_iconCarrier"
     transform="matrix(0.24502553,0,0,0.24502553,6.0455681,0)"
     style="fill:#c69c6d;fill-opacity:1">
    <title
       id="title1">131</title>
    <defs
       id="defs1" />
    <g
       stroke="none"
       stroke-width="1"
       fill="none"
       fill-rule="evenodd"
       id="g3"
       style="fill:#c69c6d;fill-opacity:1">
      <g
         fill="#000000"
         id="g2"
         style="fill:#c69c6d;fill-opacity:1">
        <path
           d="M 4.92,1.898 C 4.744,0.712 3.727,0 2.484,0 1.119,0 0.01,1.104 0.01,2.462 c 0,1.361 1.108,2.463 2.474,2.463 0.164,0 0.325,-0.018 0.48,-0.049 L 0.975,1.888 Z"
           class="si-glyph-fill"
           id="path1"
           style="fill:#c69c6d;fill-opacity:1" />
        <path
           d="M 9.9657349,9.0010101 16.032,3.0262626 3.032,3 9.0741687,9 v 4.031313 L 7.0269799,15 H 12.03702 L 9.9918394,13.037374 Z M 5.188,4 13.782,4.0408759 11.996,5.7411192 C 11.526,5.7557178 10.854,5.653528 9.938,5.2574209 8.719,4.8145985 7.616,5.6622871 7.241,6 Z"
           class="si-glyph-fill"
           id="path2"
           style="fill:#c69c6d;fill-opacity:1" />
      </g>
    </g>
  </g>
  <g
     id="g9"
     transform="translate(-0.54991087,-5.2909774)">
    <text
       xml:space="preserve"
       transform="matrix(0.01210591,0,0,0.01210591,-1.3326431,4.2883167)"
       id="text5"
       style="font-style:normal;font-variant:normal;font-weight:normal;font-stretch:normal;font-size:192px;font-family:'Arial Black';-inkscape-font-specification:'Arial Black, ';white-space:pre;shape-inside:url(#rect5);display:inline;fill:#c69c6d;fill-opacity:1"
       x="483.28125"
       y="0"><tspan
         x="1380.79102"
         y="572.83261"
         id="tspan4"><tspan
           style="text-align:end;text-anchor:end;fill:#000000"
           id="tspan2">AILS</tspan></tspan></text>
    <g
       id="g8">
      <rect
         style="fill:#000000;fill-opacity:1;stroke-width:0.02"
         id="rect6"
         width="0.49962139"
         height="2.1997983"
         x="8.5181561"
         y="9.0498943" />
      <rect
         style="fill:#000000;fill-opacity:1;stroke-width:0.02"
         id="rect7"
         width="4.2574806"
         height="0.4068464"
         x="6.3060102"
         y="9.0247231" />
    </g>
    <text
       xml:space="preserve"
       transform="matrix(0.01210591,0,0,0.01210591,-0.97169798,4.2998058)"
       id="text4"
       style="font-style:normal;font-variant:normal;font-weight:normal;font-stretch:normal;font-size:192px;font-family:'Arial Black';-inkscape-font-specification:'Arial Black, ';white-space:pre;shape-inside:url(#rect4);display:inline;fill:#c69c6d;fill-opacity:1"><tspan
         x="116.59766"
         y="572.83261"
         id="tspan10"><tspan
           style="fill:#000000"
           id="tspan9">COCK</tspan></tspan></text>
  </g>
  <text
     xml:space="preserve"
     transform="matrix(0.01210591,0,0,0.01210591,-2.097091,2.1047096)"
     id="text5-7"
     style="font-style:normal;font-variant:normal;font-weight:normal;font-stretch:normal;font-size:192px;line-height:0;font-family:'Arial Black';-inkscape-font-specification:'Arial Black, ';white-space:pre;shape-inside:url(#rect5-7);display:inline;fill:#c69c6d;fill-opacity:1"
     x="724.92188"
     y="0"><tspan
       x="817.10059"
       y="452.83261"
       id="tspan12"><tspan
         style="font-style:italic;font-family:Navilu;-inkscape-font-specification:Navilu;text-align:center;text-anchor:middle"
         id="tspan11">manager</tspan></tspan></text>
</svg>
